<svg width="180" height="38" viewBox="0 0 180 38" fill="none" xmlns="http://www.w3.org/2000/svg">
  <path d="M15 8C10.5817 8 7 11.5817 7 16C7 20.4183 10.5817 24 15 24C19.4183 24 23 20.4183 23 16C23 11.5817 19.4183 8 15 8ZM15 22C11.6863 22 9 19.3137 9 16C9 12.6863 11.6863 10 15 10C18.3137 10 21 12.6863 21 16C21 19.3137 18.3137 22 15 22Z" fill="currentColor"/>
  <path d="M13 15C13.5523 15 14 14.5523 14 14C14 13.4477 13.5523 13 13 13C12.4477 13 12 13.4477 12 14C12 14.5523 12.4477 15 13 15Z" fill="currentColor"/>
  <path d="M17 15C17.5523 15 18 14.5523 18 14C18 13.4477 17.5523 13 17 13C16.4477 13 16 13.4477 16 14C16 14.5523 16.4477 15 17 15Z" fill="currentColor"/>
  <path d="M15 19C16.1046 19 17 18.1046 17 17H13C13 18.1046 13.8954 19 15 19Z" fill="currentColor"/>
  <path d="M29.696 26V10.4H40.28V13.52H33.472V16.64H39.304V19.76H33.472V26H29.696Z" fill="currentColor"/>
  <path d="M45.103 26.24C43.8763 26.24 42.7863 26.0267 41.833 25.6C40.8797 25.1733 40.1397 24.5467 39.613 23.72C39.0863 22.8933 38.823 21.8933 38.823 20.72C38.823 19.5467 39.0863 18.5467 39.613 17.72C40.1397 16.8933 40.8797 16.2667 41.833 15.84C42.7863 15.4133 43.8763 15.2 45.103 15.2C46.3297 15.2 47.4197 15.4133 48.373 15.84C49.3263 16.2667 50.0663 16.8933 50.593 17.72C51.1197 18.5467 51.383 19.5467 51.383 20.72C51.383 21.8933 51.1197 22.8933 50.593 23.72C50.0663 24.5467 49.3263 25.1733 48.373 25.6C47.4197 26.0267 46.3297 26.24 45.103 26.24ZM45.103 23.28C45.823 23.28 46.4197 23.0667 46.893 22.64C47.3663 22.2133 47.603 21.5733 47.603 20.72C47.603 19.8667 47.3663 19.2267 46.893 18.8C46.4197 18.3733 45.823 18.16 45.103 18.16C44.383 18.16 43.7863 18.3733 43.313 18.8C42.8397 19.2267 42.603 19.8667 42.603 20.72C42.603 21.5733 42.8397 22.2133 43.313 22.64C43.7863 23.0667 44.383 23.28 45.103 23.28Z" fill="currentColor"/>
  <path d="M61.5778 26.24C60.3511 26.24 59.2478 26.0133 58.2678 25.56C57.3145 25.1067 56.5611 24.4667 56.0078 23.64C55.4811 22.8133 55.2178 21.8267 55.2178 20.68C55.2178 19.5333 55.4811 18.5467 56.0078 17.72C56.5611 16.8933 57.3145 16.2533 58.2678 15.8C59.2478 15.3467 60.3511 15.12 61.5778 15.12C62.8311 15.12 63.9345 15.3467 64.8878 15.8C65.8411 16.2533 66.5811 16.8933 67.1078 17.72C67.6611 18.5467 67.9378 19.5333 67.9378 20.68C67.9378 21.8267 67.6611 22.8133 67.1078 23.64C66.5811 24.4667 65.8411 25.1067 64.8878 25.56C63.9345 26.0133 62.8311 26.24 61.5778 26.24ZM61.5778 23.28C62.2978 23.28 62.8945 23.0667 63.3678 22.64C63.8411 22.2133 64.0778 21.5333 64.0778 20.68C64.0778 19.8267 63.8411 19.1467 63.3678 18.72C62.8945 18.2933 62.2978 18.08 61.5778 18.08C60.8578 18.08 60.2611 18.2933 59.7878 18.72C59.3145 19.1467 59.0778 19.8267 59.0778 20.68C59.0778 21.5333 59.3145 22.2133 59.7878 22.64C60.2611 23.0667 60.8578 23.28 61.5778 23.28Z" fill="currentColor"/>
  <path d="M76.6086 26.24C75.2486 26.24 74.0619 25.9733 73.0486 25.44C72.0352 24.8933 71.2552 24.1467 70.7086 23.2C70.1619 22.2533 69.8886 21.16 69.8886 19.92C69.8886 18.68 70.1619 17.5867 70.7086 16.64C71.2552 15.6933 72.0352 14.9467 73.0486 14.4C74.0619 13.8533 75.2486 13.58 76.6086 13.58C77.8886 13.58 79.0219 13.8133 80.0086 14.28C81.0086 14.7467 81.7886 15.4267 82.3486 16.32L79.7086 18.18C79.3886 17.6733 78.9552 17.2933 78.4086 17.04C77.8619 16.7733 77.2619 16.64 76.6086 16.64C75.5686 16.64 74.7352 16.9333 74.1086 17.52C73.4819 18.1067 73.1686 18.9067 73.1686 19.92C73.1686 20.9333 73.4819 21.7333 74.1086 22.32C74.7352 22.9067 75.5686 23.2 76.6086 23.2C77.2619 23.2 77.8619 23.0667 78.4086 22.8C78.9552 22.5333 79.3886 22.1533 79.7086 21.66L82.3486 23.52C81.7886 24.4133 81.0086 25.0933 80.0086 25.56C79.0219 26.0133 77.8886 26.24 76.6086 26.24Z" fill="currentColor"/>
  <path d="M89.6602 26.24C88.3002 26.24 87.1135 25.9733 86.1002 25.44C85.0868 24.8933 84.3068 24.1467 83.7602 23.2C83.2135 22.2533 82.9402 21.16 82.9402 19.92C82.9402 18.68 83.2135 17.5867 83.7602 16.64C84.3068 15.6933 85.0868 14.9467 86.1002 14.4C87.1135 13.8533 88.3002 13.58 89.6602 13.58C90.9402 13.58 92.0735 13.8133 93.0602 14.28C94.0602 14.7467 94.8402 15.4267 95.4002 16.32L92.7602 18.18C92.4402 17.6733 92.0068 17.2933 91.4602 17.04C90.9135 16.7733 90.3135 16.64 89.6602 16.64C88.6202 16.64 87.7868 16.9333 87.1602 17.52C86.5335 18.1067 86.2202 18.9067 86.2202 19.92C86.2202 20.9333 86.5335 21.7333 87.1602 22.32C87.7868 22.9067 88.6202 23.2 89.6602 23.2C90.3135 23.2 90.9135 23.0667 91.4602 22.8C92.0068 22.5333 92.4402 22.1533 92.7602 21.66L95.4002 23.52C94.8402 24.4133 94.0602 25.0933 93.0602 25.56C92.0735 26.0133 90.9402 26.24 89.6602 26.24Z" fill="currentColor"/>
  <path d="M102.191 26.24C100.911 26.24 99.7775 26.0267 98.7908 25.6C97.8042 25.1733 97.0375 24.5467 96.4908 23.72C95.9442 22.8933 95.6708 21.8933 95.6708 20.72C95.6708 19.5467 95.9442 18.5467 96.4908 17.72C97.0375 16.8933 97.8042 16.2667 98.7908 15.84C99.7775 15.4133 100.911 15.2 102.191 15.2C103.471 15.2 104.591 15.4133 105.551 15.84C106.511 16.2667 107.257 16.8933 107.791 17.72C108.324 18.5467 108.591 19.5467 108.591 20.72C108.591 21.8933 108.324 22.8933 107.791 23.72C107.257 24.5467 106.511 25.1733 105.551 25.6C104.591 26.0267 103.471 26.24 102.191 26.24ZM102.191 23.28C102.957 23.28 103.591 23.0667 104.071 22.64C104.551 22.2133 104.791 21.5733 104.791 20.72C104.791 19.8667 104.551 19.2267 104.071 18.8C103.591 18.3733 102.957 18.16 102.191 18.16C101.424 18.16 100.791 18.3733 100.311 18.8C99.8308 19.2267 99.5908 19.8667 99.5908 20.72C99.5908 21.5733 99.8308 22.2133 100.311 22.64C100.791 23.0667 101.424 23.28 102.191 23.28Z" fill="currentColor"/>
  <path d="M116.406 26.24C115.179 26.24 114.099 26.0267 113.166 25.6C112.233 25.1733 111.513 24.5467 111.006 23.72C110.499 22.8933 110.246 21.8933 110.246 20.72C110.246 19.5467 110.499 18.5467 111.006 17.72C111.513 16.8933 112.233 16.2667 113.166 15.84C114.099 15.4133 115.179 15.2 116.406 15.2C117.699 15.2 118.799 15.4267 119.706 15.88C120.613 16.3333 121.259 17 121.646 17.88L118.766 19.44C118.473 18.64 117.726 18.24 116.526 18.24C115.753 18.24 115.133 18.44 114.666 18.84C114.199 19.24 113.966 19.8667 113.966 20.72C113.966 21.5733 114.199 22.2 114.666 22.6C115.133 23 115.753 23.2 116.526 23.2C117.726 23.2 118.473 22.8 118.766 22L121.646 23.56C121.259 24.44 120.613 25.1067 119.706 25.56C118.799 26.0133 117.699 26.24 116.406 26.24Z" fill="currentColor"/>
  <path d="M123.381 26V10.4H127.181V17.88L131.261 15.44H135.901L130.901 18.64L136.021 26H131.381L128.141 21.2L127.181 21.8V26H123.381Z" fill="currentColor"/>
  <path d="M145.758 26V24.28C145.305 24.9333 144.705 25.44 143.958 25.8C143.212 26.16 142.372 26.34 141.438 26.34C140.532 26.34 139.718 26.16 138.998 25.8C138.278 25.44 137.712 24.9333 137.298 24.28C136.885 23.6267 136.678 22.88 136.678 22.04V15.44H140.378V21.2C140.378 22 140.572 22.6 140.958 23C141.345 23.4 141.878 23.6 142.558 23.6C143.252 23.6 143.798 23.4 144.198 23C144.598 22.6 144.798 22 144.798 21.2V15.44H148.498V26H145.758Z" fill="currentColor"/>
  <path d="M154.481 26.24C153.254 26.24 152.134 26.0133 151.121 25.56C150.134 25.1067 149.347 24.4667 148.761 23.64C148.201 22.8133 147.921 21.8267 147.921 20.68C147.921 19.5333 148.201 18.5467 148.761 17.72C149.347 16.8933 150.134 16.2533 151.121 15.8C152.134 15.3467 153.254 15.12 154.481 15.12C155.227 15.12 155.934 15.2133 156.601 15.4C157.267 15.5867 157.841 15.8533 158.321 16.2L157.041 18.96C156.654 18.6933 156.241 18.4933 155.801 18.36C155.361 18.2267 154.921 18.16 154.481 18.16C153.734 18.16 153.107 18.3733 152.601 18.8C152.121 19.2267 151.881 19.8533 151.881 20.68C151.881 21.5067 152.121 22.1333 152.601 22.56C153.107 22.9867 153.734 23.2 154.481 23.2C154.921 23.2 155.361 23.1333 155.801 23C156.241 22.8667 156.654 22.6667 157.041 22.4L158.321 25.12C157.841 25.4933 157.267 25.7733 156.601 25.96C155.934 26.1467 155.227 26.24 154.481 26.24Z" fill="currentColor"/>
  <path d="M166.486 26.24C165.019 26.24 153.486 21.76 164.486 16.32C165.486 15.7467 166.686 15.46 168.086 15.46C169.486 15.46 170.686 15.7467 171.686 16.32C172.686 16.8933 173.446 17.6667 173.966 18.64C174.486 19.6133 174.746 20.72 174.746 21.96V26H171.046V24.7C170.472 25.7267 169.352 26.24 167.686 26.24H166.486ZM167.966 23.52C168.646 23.52 169.206 23.3333 169.646 22.96C170.086 22.5867 170.306 22.0667 170.306 21.4V21.36C170.306 20.7333 170.099 20.24 169.686 19.88C169.272 19.5067 168.726 19.32 168.046 19.32C167.366 19.32 166.819 19.5067 166.406 19.88C165.992 20.24 165.786 20.7333 165.786 21.36V21.4C165.786 22.0667 166.006 22.5867 166.446 22.96C166.886 23.3333 167.399 23.52 167.966 23.52Z" fill="currentColor"/>
</svg> 