<svg width="800" height="600" viewBox="0 0 800 600" fill="none" xmlns="http://www.w3.org/2000/svg">
  <rect width="800" height="600" fill="#F8F9FA"/>
  
  <!-- Background decorative elements -->
  <circle cx="400" cy="300" r="250" fill="#E9ECEF" opacity="0.5"/>
  <circle cx="400" cy="300" r="150" fill="#DEE2E6" opacity="0.5"/>

  <!-- Stylized face outline -->
  <path d="M400 150C323.1 150 260 213.1 260 290C260 366.9 323.1 430 400 430C476.9 430 540 366.9 540 290C540 213.1 476.9 150 400 150Z" stroke="#343A40" stroke-width="5"/>
  
  <!-- Abstract representation of facial features -->
  <path d="M350 250C350 261.046 341.046 270 330 270C318.954 270 310 261.046 310 250C310 238.954 318.954 230 330 230C341.046 230 350 238.954 350 250Z" fill="#343A40"/>
  <path d="M490 250C490 261.046 481.046 270 470 270C458.954 270 450 261.046 450 250C450 238.954 458.954 230 470 230C481.046 230 490 238.954 490 250Z" fill="#343A40"/>
  
  <!-- Smile -->
  <path d="M340 320C340 320 370 380 400 380C430 380 460 320 460 320" stroke="#343A40" stroke-width="5" stroke-linecap="round"/>
  
  <!-- Decorative elements representing enhancement/transformation -->
  <path d="M550 200L580 170M550 170L580 200" stroke="#4CAF50" stroke-width="3" stroke-linecap="round"/>
  <path d="M220 200L250 170M220 170L250 200" stroke="#4CAF50" stroke-width="3" stroke-linecap="round"/>
  <path d="M400 120L400 80" stroke="#4CAF50" stroke-width="3" stroke-linecap="round"/>
  <path d="M400 500L400 460" stroke="#4CAF50" stroke-width="3" stroke-linecap="round"/>
  
  <!-- Enhancement icons -->
  <circle cx="270" cy="380" r="20" fill="#4CAF50" opacity="0.8"/>
  <circle cx="530" cy="380" r="20" fill="#4CAF50" opacity="0.8"/>
  <circle cx="400" cy="500" r="20" fill="#4CAF50" opacity="0.8"/>
  
  <!-- Glow effect -->
  <circle cx="400" cy="290" r="200" stroke="#4CAF50" stroke-width="2" stroke-dasharray="10 5" opacity="0.5"/>
</svg> 